<svg xmlns="http://www.w3.org/2000/svg" width="24" height="24" viewBox="0 0 24 24">
    <g fill="none" fill-rule="evenodd">
        <path d="M0 0L24 0 24 24 0 24z"/>
        <path fill-rule="nonzero" stroke="#D6DCE3" stroke-width="2" d="M12 3C9.516 3 7.266 4.008 5.637 5.637 4.008 7.267 3 9.516 3 12c0 2.484 1.008 4.734 2.637 6.363C7.267 19.992 9.516 21 12 21c2.484 0 4.734-1.008 6.363-2.637C19.992 16.733 21 14.484 21 12c0-2.484-1.008-4.734-2.637-6.363C16.733 4.008 14.484 3 12 3z"/>
        <path fill="#D6DCE3" fill-rule="nonzero" d="M12 6c1.66 0 3 1.34 3 3s-1.34 3-3 3-3-1.34-3-3 1.34-3 3-3zM12 20.2c-2.5 0-4.71-1.28-6-3.22.03-1.99 4-3.08 6-3.08 1.99 0 5.97 1.09 6 3.08-1.29 1.94-3.5 3.22-6 3.22z"/>
    </g>
</svg>
