<svg xmlns="http://www.w3.org/2000/svg" width="71" height="64" viewBox="0 0 71 64">
    <g fill="#2C3448">
        <path d="M30.388 23.993c-.361-.509-3.55-4.375-3.743-4.636-.194-.261-.504-.392-.852-.157-.362.248-.646.536-1.007.94-.22.249-.297.562.129 1.02.206.221 3.744 3.918 3.911 4.074 1.02.98 2.247-.26 1.562-1.24M23.52 20.52c-.283.221-.554.117-.825-.144-.414-.405-3.421-3.775-5.693-6.505C13.865 10.096 9.695 4.715 9.63 0c3.562 2.651 9.036 9.417 11.76 12.84 1.884 2.363 3.77 4.544 4.118 5.015.348.47-.065.783-.323 1.058-.258.274-1.265 1.306-1.665 1.606M26.464 27.65c-.207-.13-4.234-2.886-4.44-3.043-.31-.222-.44-.483-.272-.875.142-.313.646-1.097.826-1.28.168-.156.375-.274.685-.065.167.117 4.285 3.435 4.595 3.683 1.007.823.026 2.521-1.394 1.58M21.959 22.309c.232-.366.542-.667-.065-1.215-.594-.549-6.803-5.538-9.746-8.007-5.15-4.336-8.494-6.909-8.494-6.909 0 5.825 8.313 12.173 12.199 15.086 2.685 2.024 3.989 2.795 4.144 2.873.387.196.568.026.697-.091.49-.497 1.265-1.737 1.265-1.737M25.238 30.616c-.323-.105-4.673-1.764-5.267-2.064-.568-.288-.504-.562-.388-.94.104-.353.22-.706.426-1.137.142-.287.362-.535.982-.248.438.196 4.944 2.469 5.176 2.586 1.123.549.658 2.325-.93 1.803M19.57 26.07c-.167.431-.67 1.842-.826 2.181-.284.601-.658.366-.93.288-.425-.13-3.446-1.424-6.118-2.795C3.525 21.59 1.42 17.946.916 14.602c10.057 6.427 14.51 8.66 18.37 10.658.452.236.452.38.285.81M18.331 30.668c-.013.392-.116 1.632-.22 2.076-.115.497-.464.418-.71.418-.257 0-1.923-.17-4.763-.888-3.847-.98-10.172-3.2-11.192-7.157 8.83 3.043 11.605 3.657 16.446 4.82.31.078.452.352.44.73M24.928 33.41c-.284-.026-4.583-.378-5.616-.548-.529-.091-.62-.366-.62-.68 0-.286.014-.718.117-1.227.142-.718.671-.548 1.007-.496.348.052 4.931.98 5.383 1.058 1.278.196 1.071 1.998-.271 1.894M25.38 36.062c-1.846.314-4.841.588-5.241.627-.4.04-.775.078-.891-.405-.09-.379-.168-.849-.207-1.228-.051-.51.246-.587.581-.6.349-.014 5.254-.144 5.77-.157 1.124-.013 1.42 1.528-.012 1.763M18.538 34.965c.103.444.245 1.228.297 1.855.026.378-.31.535-.517.535-4.776.235-11.63-.196-14.019-3.696 6.222.653 10.999.692 13.555.718.542 0 .606.287.684.588M26.632 38.256c-.736.314-4.312 1.476-4.983 1.646-.607.144-.904.209-1.097-.104-.207-.353-.323-.667-.4-.993-.09-.379.09-.483.451-.575.53-.117 5.177-1.319 5.5-1.423 1.084-.314 1.407 1.084.529 1.45M19.687 38.91c-.155-.301-.284-.458-.878-.353-1.562.3-5.06.966-10.276 1.41 1.304 1.515 5.009 2.626 11.296.94.322-.09.49-.26.322-.848-.103-.327-.31-.85-.464-1.15M27.665 40.046c-.22.156-3.344 2.116-4.609 2.703-.361.157-.503.079-.658-.104-.117-.144-.259-.327-.375-.536-.142-.274-.206-.483.104-.627 1.161-.548 3.795-1.946 4.789-2.546.98-.614 1.536.509.749 1.11M21.584 42.11c-.206-.262-.31-.288-.748-.131-.44.157-2.866 1.228-7.023 2.338 1.91.705 4.815.901 8.172-.732.193-.091.284-.392.142-.653-.142-.287-.362-.574-.543-.823M39.205 23.993c.362-.509 3.55-4.375 3.744-4.636.194-.261.503-.392.852-.157.361.248.645.536 1.007.94.22.249.297.562-.13 1.02-.206.221-3.743 3.918-3.91 4.074-1.033.98-2.247-.26-1.563-1.24M46.06 20.52c.284.221.555.117.826-.144.413-.405 3.421-3.775 5.693-6.505C55.716 10.096 59.886 4.715 59.95 0c-3.563 2.651-9.036 9.417-11.76 12.84-1.885 2.363-3.77 4.544-4.118 5.015-.349.47.065.783.323 1.058.27.274 1.278 1.306 1.665 1.606M43.13 27.65c.206-.13 4.22-2.886 4.44-3.043.31-.222.44-.483.271-.875-.142-.313-.645-1.097-.826-1.28-.168-.156-.374-.274-.671-.065-.168.117-4.286 3.435-4.596 3.683-1.02.823-.038 2.521 1.382 1.58M47.635 22.309c-.232-.366-.542-.667.064-1.215.607-.549 6.804-5.538 9.747-8.007 5.15-4.336 8.494-6.909 8.494-6.909 0 5.825-8.313 12.173-12.2 15.086-2.684 2.024-3.988 2.795-4.143 2.873-.387.196-.568.026-.697-.091-.49-.497-1.265-1.737-1.265-1.737M44.356 30.616c.323-.105 4.673-1.764 5.267-2.064.568-.288.503-.562.387-.94-.103-.353-.22-.706-.426-1.137-.142-.287-.361-.535-.98-.248-.44.196-4.945 2.469-5.177 2.586-1.124.549-.672 2.325.929 1.803M50.023 26.07c.168.431.671 1.842.826 2.181.271.601.659.366.93.288.426-.13 3.446-1.424 6.119-2.795 8.171-4.154 10.275-7.798 10.779-11.142-10.07 6.427-14.51 8.66-18.37 10.658-.452.236-.452.38-.284.81M51.262 30.668c.013.392.117 1.632.22 2.076.116.497.465.418.71.418.258 0 1.923-.17 4.763-.888 3.847-.98 10.173-3.2 11.192-7.157-8.83 3.043-11.605 3.657-16.446 4.82-.322.078-.452.352-.439.73M44.653 33.41c.284-.026 4.583-.378 5.615-.548.53-.091.62-.366.62-.68 0-.286-.013-.718-.116-1.227-.142-.718-.659-.548-1.007-.496-.349.052-4.931.98-5.383 1.058-1.265.196-1.059 1.998.27 1.894M44.214 36.062c1.846.314 4.84.588 5.241.627.4.04.775.078.89-.405.091-.379.169-.849.207-1.228.052-.51-.245-.587-.58-.6-.35-.014-5.255-.144-5.77-.157-1.124-.013-1.434 1.528.012 1.763M51.056 34.965c-.103.444-.245 1.228-.297 1.855-.026.378.31.535.516.535 4.777.235 11.631-.196 14.02-3.696-6.223.653-10.999.692-13.555.718-.542 0-.607.287-.684.588M42.962 38.256c.736.314 4.311 1.476 4.983 1.646.606.144.903.209 1.084-.104.207-.353.323-.667.4-.993.09-.379-.09-.483-.452-.575-.529-.117-5.176-1.319-5.499-1.423-1.084-.314-1.394 1.084-.516 1.45M49.907 38.91c.155-.301.284-.458.878-.353 1.562.3 5.047.966 10.275 1.41-1.303 1.515-5.008 2.626-11.295.94-.323-.09-.49-.26-.323-.848.103-.327.31-.85.465-1.15M41.93 40.046c.219.156 3.343 2.116 4.608 2.703.348.157.503.079.658-.104.116-.144.271-.327.374-.536.142-.274.207-.483-.103-.627-1.162-.548-3.795-1.946-4.776-2.546-.994-.614-1.55.509-.762 1.11M48.01 42.11c.206-.262.31-.288.748-.131.439.157 2.866 1.228 7.023 2.338-1.911.705-4.816.901-8.172-.732-.194-.091-.284-.392-.142-.653.142-.287.349-.574.542-.823M59.124 57.744h3.42v-.627h-4.04v5.93h4.04v-.614h-3.42v-2.051h2.143c.555 0 .684-.588.684-.588h-2.827v-2.05zM69.542 57.744v-.627h-4.04v5.93h.619v-2.678h2.104c.555 0 .684-.588.684-.588h-2.788v-2.037h3.42zM3.008 63.099C.943 63.099 0 61.597 0 60.108c-.013-.862.284-1.659.84-2.22.542-.55 1.29-.85 2.168-.85.813 0 1.562.314 2.13.889l.065.078s-.413.287-.956-.04c-.374-.221-.8-.339-1.239-.339-.71 0-1.317.222-1.73.666-.439.444-.67 1.084-.67 1.803.012 1.11.645 2.416 2.4 2.416.633 0 1.265-.261 1.704-.705l.065-.066.426.405-.065.066c-.568.574-1.33.888-2.13.888M10.586 63.138c-2.027 0-2.956-1.594-2.956-3.07 0-1.515.916-3.043 2.956-3.043.852 0 1.588.288 2.117.823.542.562.852 1.359.839 2.247 0 1.463-.93 3.043-2.956 3.043m-2.337-3.07c.013 1.19.749 2.47 2.337 2.47 1.613 0 2.35-1.28 2.35-2.47 0-1.214-.724-2.455-2.35-2.455-.684 0-1.265.222-1.665.64-.44.444-.672 1.097-.672 1.816M18.99 63.138c-2.027 0-2.957-1.594-2.957-3.07 0-1.515.917-3.043 2.957-3.043.852 0 1.587.288 2.117.823.542.562.852 1.359.839 2.247-.013 1.463-.943 3.043-2.956 3.043m-2.337-3.07c.013 1.19.749 2.47 2.337 2.47 1.613 0 2.35-1.28 2.35-2.47 0-1.214-.724-2.455-2.35-2.455-.685 0-1.265.222-1.666.64-.439.444-.67 1.097-.67 1.816M54.799 57.117H55.799V63.047H54.799zM51.082 59.847L51.082 57.117 51.701 57.117 51.701 63.033 51.082 63.033 51.082 60.434zM47.66 59.781v-2.664h-.619v5.93h.62v-2.665h2.143c.555 0 .684-.588.684-.588H47.66v-.013zM34.997 59.938v-1.41h-.374v1.41h-1.42v.392h1.42v1.45h.374v-1.45h.968c.374 0 .452-.392.452-.392h-1.42zM39.631 57.117v.587h2.053v5.33h.62v-5.33h1.394c.542 0 .67-.587.67-.587h-4.737zM26.374 60.082s1.846-1.738 2.155-2.038c.543-.522.181-1.019.181-1.019l-3.175 3.044 3.11 2.978h.827l-3.098-2.965z"/>
        <path d="M24.618 57.117H25.618V63.034H24.618z"/>
    </g>
</svg>
