<svg xmlns="http://www.w3.org/2000/svg" width="113" height="12" viewBox="0 0 113 12">
    <g fill="#D6DCE3">
        <path d="M95.176 1.51h5.503V.481h-6.5v9.731h6.5V9.205h-5.503V5.84h3.447c.893 0 1.1-.965 1.1-.965h-4.547V1.51zM111.933 1.51V.481h-6.5v9.731h.997V5.818h3.385c.893 0 1.1-.964 1.1-.964h-4.485V1.51h5.503zM4.913 10.298c-3.322 0-4.838-2.465-4.838-4.909-.02-1.414.457-2.722 1.35-3.643C2.297.846 3.501.353 4.913.353c1.309 0 2.513.514 3.426 1.457l.104.129s-.664.471-1.536-.065c-.602-.364-1.288-.557-1.994-.557-1.142 0-2.118.364-2.782 1.093-.706.729-1.08 1.78-1.08 2.958.021 1.822 1.038 3.965 3.862 3.965 1.018 0 2.035-.428 2.741-1.157l.104-.107.685.664-.104.107c-.913.943-2.138 1.458-3.426 1.458M17.102 10.362c-3.26 0-4.755-2.615-4.755-5.037 0-2.486 1.474-4.994 4.755-4.994 1.37 0 2.554.472 3.405 1.35.873.922 1.37 2.23 1.35 3.687 0 2.4-1.495 4.994-4.755 4.994m-3.758-5.037c.02 1.95 1.204 4.051 3.758 4.051 2.596 0 3.78-2.1 3.78-4.05 0-1.994-1.164-4.03-3.78-4.03-1.1 0-2.035.364-2.679 1.05-.706.729-1.08 1.8-1.08 2.98M30.62 10.362c-3.26 0-4.755-2.615-4.755-5.037 0-2.486 1.474-4.994 4.755-4.994 1.37 0 2.554.472 3.405 1.35.872.922 1.37 2.23 1.35 3.687-.021 2.4-1.516 4.994-4.755 4.994M26.86 5.325c.021 1.95 1.205 4.051 3.759 4.051 2.595 0 3.779-2.1 3.779-4.05 0-1.994-1.163-4.03-3.78-4.03-1.1 0-2.034.364-2.678 1.05-.706.729-1.08 1.8-1.08 2.98M88.22.481H89.22V10.212H88.22zM82.24 4.961L82.24.481 83.237.481 83.237 10.191 82.24 10.191 82.24 5.925zM76.737 4.854V.48h-.996v9.731h.996V5.84h3.447c.893 0 1.1-.965 1.1-.965h-4.547v-.021zM56.368 5.11V2.797h-.603v2.315h-2.284v.643h2.284v2.379h.603v-2.38h1.557c.602 0 .727-.642.727-.642h-2.284zM63.822.481v.965h3.301v8.745h.997V1.446h2.243c.872 0 1.08-.965 1.08-.965h-7.621zM42.497 5.347s2.97-2.851 3.468-3.344c.872-.857.29-1.672.29-1.672l-5.108 4.994 5.004 4.887h1.33l-4.984-4.865zM39.673.481H40.673V10.191H39.673z" transform="translate(.937 .667)"/>
    </g>
</svg>
