<svg xmlns="http://www.w3.org/2000/svg" width="90" height="80" viewBox="0 0 90 80">
    <g fill="#D6DCE3">
        <path d="M39.142 31.004c-.458-.637-4.5-5.47-4.746-5.796-.245-.326-.638-.49-1.08-.196-.458.31-.818.67-1.276 1.176-.278.31-.376.702.164 1.273.261.278 4.745 4.898 4.958 5.094 1.293 1.225 2.847-.326 1.98-1.55M30.436 26.661c-.36.278-.703.147-1.047-.18-.524-.505-4.336-4.718-7.216-8.13-3.977-4.718-9.262-11.445-9.344-17.339 4.516 3.315 11.455 11.772 14.907 16.05 2.39 2.954 4.779 5.68 5.22 6.269.442.587-.081.98-.409 1.322-.327.343-1.603 1.633-2.11 2.008M34.167 35.576c-.262-.164-5.367-3.609-5.629-3.805-.393-.277-.556-.604-.343-1.093.18-.392.818-1.372 1.047-1.6.213-.196.474-.343.867-.082.213.147 5.433 4.294 5.826 4.604 1.276 1.029.032 3.151-1.768 1.976M28.456 28.898c.295-.457.688-.833-.081-1.518-.753-.686-8.624-6.923-12.355-10.009-6.53-5.42-10.767-8.636-10.767-8.636 0 7.281 10.538 15.216 15.463 18.857 3.404 2.53 5.057 3.494 5.253 3.592.491.245.72.032.884-.115.622-.62 1.603-2.171 1.603-2.171M32.613 39.282c-.41-.131-5.924-2.204-6.677-2.58-.72-.36-.638-.702-.49-1.175.13-.441.278-.882.54-1.42.18-.36.458-.67 1.243-.311.556.245 6.267 3.086 6.562 3.233 1.424.685.834 2.906-1.178 2.253M25.43 33.6c-.214.539-.852 2.302-1.048 2.727-.36.75-.835.457-1.178.359-.54-.164-4.37-1.78-7.757-3.494C5.09 28 2.422 23.445 1.784 19.265 14.53 27.298 20.176 30.09 25.069 32.588c.573.294.573.473.36 1.012M23.858 39.347c-.016.49-.147 2.04-.278 2.596-.147.62-.59.522-.9.522-.327 0-2.438-.212-6.038-1.11-4.877-1.224-12.895-4-14.187-8.947 11.192 3.804 14.71 4.572 20.847 6.025.393.098.573.44.556.914M32.22 42.776c-.36-.033-5.81-.474-7.118-.686-.671-.114-.786-.457-.786-.85 0-.358.017-.897.148-1.534.18-.898.85-.686 1.276-.62.442.065 6.25 1.224 6.824 1.322 1.62.245 1.358 2.498-.344 2.368M32.793 46.09c-2.34.392-6.137.734-6.644.783-.507.05-.982.098-1.129-.506-.115-.473-.213-1.06-.262-1.534-.065-.637.311-.735.737-.751.441-.017 6.66-.18 7.314-.196 1.424-.017 1.8 1.91-.016 2.204M24.12 44.718c.13.555.31 1.535.376 2.319.033.473-.392.67-.654.67C17.787 48 9.098 47.46 6.07 43.085c7.887.816 13.942.865 17.182.898.687 0 .769.359.867.734M34.38 48.833c-.933.391-5.465 1.845-6.316 2.057-.77.18-1.146.261-1.391-.13-.262-.442-.41-.833-.508-1.242-.114-.473.115-.604.573-.718.671-.147 6.562-1.649 6.971-1.78 1.375-.391 1.784 1.356.671 1.813M25.576 49.649c-.196-.376-.36-.571-1.112-.44-1.98.375-6.415 1.207-13.026 1.762 1.653 1.894 6.35 3.282 14.318 1.176.41-.114.622-.327.41-1.061-.131-.408-.393-1.062-.59-1.437M35.69 51.07c-.28.195-4.24 2.644-5.843 3.379-.458.196-.638.098-.834-.13-.148-.18-.328-.409-.475-.67-.18-.343-.262-.604.131-.784 1.473-.685 4.811-2.432 6.071-3.183 1.244-.768 1.947.636.95 1.387M27.982 53.649c-.262-.327-.393-.36-.95-.163-.556.196-3.632 1.534-8.901 2.922 2.422.882 6.104 1.127 10.358-.914.246-.114.36-.49.18-.816-.18-.36-.458-.719-.687-1.029M50.318 31.004c.458-.637 4.5-5.47 4.746-5.796.245-.326.638-.49 1.08-.196.458.31.818.67 1.276 1.176.278.31.376.702-.164 1.273-.261.278-4.745 4.898-4.958 5.094-1.309 1.225-2.847-.326-1.98-1.55M59.007 26.661c.36.278.704.147 1.048-.18.523-.505 4.336-4.718 7.216-8.13 3.976-4.718 9.262-11.445 9.344-17.339-4.517 3.315-11.455 11.772-14.908 16.05-2.389 2.954-4.778 5.68-5.22 6.269-.442.587.082.98.41 1.322.343.343 1.62 1.633 2.11 2.008M55.293 35.576c.262-.164 5.35-3.609 5.629-3.805.393-.277.556-.604.343-1.093-.18-.392-.818-1.372-1.047-1.6-.213-.196-.474-.343-.85-.082-.213.147-5.433 4.294-5.826 4.604-1.293 1.029-.05 3.151 1.75 1.976M61.004 28.898c-.295-.457-.688-.833.081-1.518.77-.686 8.624-6.923 12.355-10.009 6.53-5.42 10.767-8.636 10.767-8.636 0 7.281-10.538 15.216-15.463 18.857-3.404 2.53-5.057 3.494-5.253 3.592-.491.245-.72.032-.884-.115-.622-.62-1.603-2.171-1.603-2.171M56.847 39.282c.41-.131 5.924-2.204 6.677-2.58.72-.36.638-.702.49-1.175-.13-.441-.278-.882-.54-1.42-.18-.36-.458-.67-1.243-.311-.556.245-6.267 3.086-6.562 3.233-1.424.685-.85 2.906 1.178 2.253M64.03 33.6c.214.539.852 2.302 1.048 2.727.344.75.835.457 1.178.359.54-.164 4.37-1.78 7.757-3.494C84.37 28 87.038 23.445 87.676 19.265 74.913 27.298 69.284 30.09 64.391 32.588c-.573.294-.573.473-.36 1.012M65.602 39.347c.016.49.147 2.04.278 2.596.147.62.59.522.9.522.327 0 2.438-.212 6.038-1.11 4.877-1.224 12.895-4 14.187-8.947-11.192 3.804-14.71 4.572-20.847 6.025-.409.098-.573.44-.556.914M57.224 42.776c.36-.033 5.809-.474 7.118-.686.67-.114.785-.457.785-.85 0-.358-.016-.897-.147-1.534-.18-.898-.835-.686-1.276-.62-.442.065-6.251 1.224-6.824 1.322-1.604.245-1.342 2.498.344 2.368M56.667 46.09c2.34.392 6.137.734 6.644.783.507.05.982.098 1.129-.506.115-.473.213-1.06.262-1.534.065-.637-.311-.735-.737-.751-.441-.017-6.66-.18-7.314-.196-1.424-.017-1.816 1.91.016 2.204M65.34 44.718c-.13.555-.31 1.535-.376 2.319-.033.473.392.67.654.67 6.055.293 14.744-.246 17.771-4.621-7.887.816-13.942.865-17.182.898-.687 0-.769.359-.867.734M55.08 48.833c.933.391 5.465 1.845 6.316 2.057.77.18 1.146.261 1.375-.13.262-.442.409-.833.507-1.242.115-.473-.114-.604-.573-.718-.67-.147-6.561-1.649-6.97-1.78-1.375-.391-1.768 1.356-.655 1.813M63.884 49.649c.196-.376.36-.571 1.112-.44 1.98.375 6.399 1.207 13.026 1.762-1.653 1.894-6.35 3.282-14.318 1.176-.41-.114-.622-.327-.41-1.061.131-.408.393-1.062.59-1.437M53.77 51.07c.28.195 4.24 2.644 5.843 3.379.442.196.638.098.834-.13.148-.18.344-.409.475-.67.18-.343.262-.604-.131-.784-1.473-.685-4.811-2.432-6.055-3.183-1.26-.768-1.963.636-.965 1.387M61.478 53.649c.262-.327.393-.36.95-.163.556.196 3.632 1.534 8.901 2.922-2.422.882-6.104 1.127-10.358-.914-.246-.114-.36-.49-.18-.816.18-.36.442-.719.687-1.029M75.567 73.192h4.337v-.784h-5.122v7.412h5.122v-.767h-4.337V76.49h2.717c.703 0 .867-.735.867-.735h-3.584v-2.563zM88.773 73.192v-.784H83.65v7.412h.785v-3.347h2.668c.703 0 .867-.734.867-.734h-3.535v-2.547h4.337zM4.435 79.886c-2.619 0-3.813-1.878-3.813-3.74-.017-1.077.36-2.073 1.063-2.775.688-.685 1.637-1.06 2.75-1.06 1.03 0 1.98.391 2.7 1.11l.081.097s-.523.36-1.21-.049c-.475-.277-1.015-.424-1.571-.424-.9 0-1.67.277-2.193.833-.557.555-.851 1.355-.851 2.253.016 1.387.818 3.02 3.044 3.02.801 0 1.603-.327 2.16-.882l.081-.081.54.506-.081.082c-.72.718-1.686 1.11-2.7 1.11M14.04 79.935c-2.57 0-3.747-1.992-3.747-3.837 0-1.894 1.162-3.804 3.747-3.804 1.08 0 2.013.36 2.684 1.028.687.702 1.08 1.698 1.063 2.809 0 1.828-1.178 3.804-3.747 3.804m-2.962-3.837c.017 1.486.95 3.086 2.962 3.086 2.045 0 2.978-1.6 2.978-3.086 0-1.518-.916-3.07-2.978-3.07-.867 0-1.604.278-2.11.8-.557.556-.852 1.372-.852 2.27M24.693 79.935c-2.57 0-3.748-1.992-3.748-3.837 0-1.894 1.162-3.804 3.748-3.804 1.08 0 2.012.36 2.683 1.028.688.702 1.08 1.698 1.064 2.809-.016 1.828-1.195 3.804-3.747 3.804m-2.962-3.837c.016 1.486.949 3.086 2.962 3.086 2.045 0 2.978-1.6 2.978-3.086 0-1.518-.916-3.07-2.978-3.07-.868 0-1.604.278-2.111.8-.557.556-.851 1.372-.851 2.27M70.085 72.408H71.085V79.82000000000001H70.085zM65.373 75.82L65.373 72.408 66.158 72.408 66.158 79.804 65.373 79.804 65.373 76.555zM61.036 75.739v-3.33h-.785v7.411h.785v-3.33h2.717c.703 0 .867-.735.867-.735h-3.584v-.016zM44.984 75.935V74.17h-.475v1.764h-1.8v.49h1.8v1.812h.475v-1.813h1.227c.474 0 .573-.49.573-.49h-1.8zM50.858 72.408v.735h2.602v6.661h.785v-6.661h1.768c.687 0 .85-.735.85-.735h-6.005zM34.053 76.114s2.34-2.171 2.732-2.547c.688-.653.23-1.273.23-1.273l-4.026 3.804 3.944 3.722h1.047l-3.927-3.706zM31.827 72.408H32.827V79.804H31.827z"/>
    </g>
</svg>
