<svg xmlns="http://www.w3.org/2000/svg" width="87" height="80" viewBox="0 0 48 32">
    <g fill="#D6DCE3">
        <path d="M20.252 17.164c-.248-.357-2.44-3.07-2.573-3.254-.133-.183-.346-.275-.585-.11-.248.175-.444.376-.692.66-.15.174-.204.394.089.715.142.156 2.572 2.75 2.688 2.86.7.687 1.543-.183 1.073-.87M15.533 14.391c-.195.156-.382.083-.568-.1-.284-.284-2.35-2.648-3.912-4.562C8.897 7.08 6.033 3.307 5.988 0c2.448 1.86 6.21 6.605 8.081 9.005 1.295 1.658 2.59 3.188 2.83 3.518.24.33-.045.55-.222.742-.177.192-.87.916-1.144 1.126M17.555 19.624c-.142-.089-2.91-1.946-3.051-2.052-.213-.15-.302-.325-.187-.59.098-.21.444-.739.568-.862.115-.106.257-.185.47-.044.116.08 2.945 2.315 3.158 2.482.692.555.018 1.7-.958 1.066M14.46 16.147c.159-.262.372-.478-.045-.871-.408-.394-4.675-3.975-6.697-5.746C4.178 6.418 1.88 4.57 1.88 4.57c0 4.18 5.712 8.736 8.382 10.826 1.846 1.453 2.742 2.006 2.848 2.063.266.14.39.018.479-.066.337-.356.87-1.247.87-1.247M16.713 22.017c-.222-.087-3.212-1.457-3.62-1.705-.39-.238-.346-.464-.266-.777.071-.291.15-.583.293-.939.097-.237.248-.442.674-.205.302.162 3.398 2.04 3.557 2.137.772.453.453 1.92-.638 1.489M12.818 18.752c-.115.304-.461 1.299-.567 1.538-.196.424-.453.258-.64.203-.292-.092-2.368-1.004-4.204-1.97C1.792 15.592.346 13.023 0 10.666c6.91 4.53 9.97 6.105 12.623 7.514.31.166.31.267.195.571M11.967 21.963c-.01.26-.08 1.082-.151 1.376-.08.329-.32.277-.488.277-.177 0-1.322-.112-3.273-.588-2.644-.65-6.99-2.12-7.691-4.742 6.067 2.016 7.975 2.423 11.301 3.193.213.052.31.233.302.484M16.5 23.616c-.196-.02-3.15-.288-3.86-.417-.363-.069-.425-.277-.425-.515 0-.218.009-.545.08-.932.097-.545.461-.416.692-.377.24.04 3.388.744 3.699.803.878.149.736 1.517-.186 1.438M16.81 25.495c-1.268.198-3.326.371-3.601.396-.275.025-.533.05-.613-.256-.062-.239-.115-.536-.141-.775-.036-.322.168-.372.399-.38.24-.008 3.61-.09 3.965-.099.772-.008.976.966-.009 1.114M12.109 25.177c.07.27.168.749.204 1.13.017.232-.213.327-.355.327-3.282.144-7.993-.12-9.634-2.253 4.276.398 7.558.422 9.314.438.373 0 .417.175.47.358M17.67 26.953c-.505.22-2.962 1.035-3.424 1.154-.416.1-.62.146-.754-.074-.141-.247-.221-.467-.275-.695-.062-.266.063-.34.31-.403.365-.083 3.558-.925 3.78-.998.745-.22.967.76.364 1.016M12.898 27.701c-.106-.213-.195-.324-.603-.25-1.073.213-3.477.685-7.061 1 .896 1.072 3.442 1.858 7.762.665.221-.065.337-.185.221-.6-.07-.232-.212-.602-.319-.815M18.38 28.392c-.15.117-2.297 1.582-3.167 2.021-.248.118-.346.059-.452-.078-.08-.107-.177-.244-.257-.4-.098-.205-.142-.362.07-.469.799-.41 2.609-1.455 3.292-1.904.674-.46 1.055.38.514.83M14.202 29.89c-.142-.202-.213-.222-.514-.1-.302.12-1.97.948-4.826 1.806 1.313.545 3.309.696 5.615-.565.133-.07.195-.303.098-.505-.098-.222-.249-.444-.373-.636M26.819 17.164c.248-.357 2.44-3.07 2.572-3.254.133-.183.346-.275.586-.11.248.175.443.376.692.66.15.174.204.394-.09.715-.141.156-2.572 2.75-2.687 2.86-.71.687-1.543-.183-1.073-.87M31.53 14.391c.194.156.38.083.567-.1.284-.284 2.35-2.648 3.912-4.562C38.164 7.08 41.029 3.307 41.074 0c-2.448 1.86-6.21 6.605-8.081 9.005-1.295 1.658-2.59 3.188-2.83 3.518-.24.33.044.55.222.742.186.192.878.916 1.144 1.126M29.515 19.624c.142-.089 2.901-1.946 3.052-2.052.213-.15.302-.325.186-.59-.097-.21-.443-.739-.568-.862-.115-.106-.257-.185-.46-.044-.116.08-2.946 2.315-3.159 2.482-.7.555-.026 1.7.95 1.066M32.611 16.147c-.16-.262-.372-.478.045-.871.417-.394 4.675-3.975 6.697-5.746 3.54-3.112 5.837-4.959 5.837-4.959 0 4.18-5.713 8.736-8.383 10.826-1.845 1.453-2.74 2.006-2.847 2.063-.266.14-.39.018-.48-.066-.336-.356-.869-1.247-.869-1.247M30.358 22.017c.222-.087 3.211-1.457 3.62-1.705.39-.238.345-.464.266-.777-.071-.291-.151-.583-.293-.939-.098-.237-.249-.442-.674-.205-.302.162-3.398 2.04-3.558 2.137-.771.453-.46 1.92.64 1.489M34.252 18.752c.116.304.462 1.299.568 1.538.186.424.453.258.639.203.293-.092 2.368-1.004 4.205-1.97 5.615-2.93 7.06-5.499 7.407-7.856-6.92 4.53-9.971 6.105-12.623 7.514-.31.166-.31.267-.196.571M35.104 21.963c.009.26.08 1.082.15 1.376.08.329.32.277.489.277.177 0 1.321-.112 3.273-.588 2.643-.65 6.99-2.12 7.69-4.742-6.067 2.016-7.974 2.423-11.3 3.193-.222.052-.31.233-.302.484M30.562 23.616c.195-.02 3.15-.288 3.859-.417.364-.069.426-.277.426-.515 0-.218-.01-.545-.08-.932-.098-.545-.453-.416-.692-.377-.24.04-3.389.744-3.7.803-.868.149-.727 1.517.187 1.438M30.26 25.495c1.27.198 3.327.371 3.602.396.275.025.532.05.612-.256.062-.239.115-.536.142-.775.036-.322-.168-.372-.4-.38-.239-.008-3.61-.09-3.964-.099-.772-.008-.985.966.009 1.114M34.962 25.177c-.07.27-.169.749-.204 1.13-.018.232.213.327.355.327 3.282.144 7.992-.12 9.634-2.253-4.276.398-7.558.422-9.315.438-.372 0-.417.175-.47.358M29.4 26.953c.506.22 2.963 1.035 3.424 1.154.417.1.621.146.745-.074.142-.247.222-.467.275-.695.062-.266-.062-.34-.31-.403-.364-.083-3.557-.925-3.78-.998-.744-.22-.957.76-.354 1.016M34.173 27.701c.106-.213.195-.324.603-.25 1.073.213 3.468.685 7.06 1-.895 1.072-3.441 1.858-7.761.665-.222-.065-.337-.185-.222-.6.071-.232.213-.602.32-.815M28.69 28.392c.151.117 2.298 1.582 3.167 2.021.24.118.346.059.453-.078.08-.107.186-.244.257-.4.098-.205.142-.362-.071-.469-.798-.41-2.608-1.455-3.282-1.904-.683-.46-1.065.38-.524.83M32.869 29.89c.141-.202.212-.222.514-.1.302.12 1.97.948 4.826 1.806-1.313.545-3.31.696-5.615-.565-.134-.07-.196-.303-.098-.505.098-.222.24-.444.373-.636"/>
    </g>
</svg>
